<mxfile host="app.diagrams.net" modified="2023-03-26T15:25:50.817Z" agent="Mozilla/5.0 (Windows NT 10.0; Win64; x64) AppleWebKit/537.36 (KHTML, like Gecko) Chrome/111.0.0.0 Safari/537.36" etag="Mcen8ve9hZahfr6qgi4u" version="21.1.1" type="github">
  <diagram name="Page-1" id="l1FUAgqgtJ3iz-9Q3k8D">
    <mxGraphModel dx="979" dy="514" grid="1" gridSize="10" guides="1" tooltips="1" connect="1" arrows="1" fold="1" page="1" pageScale="1" pageWidth="827" pageHeight="1169" math="0" shadow="0">
      <root>
        <mxCell id="0" />
        <mxCell id="1" parent="0" />
        <mxCell id="kkLH6AYHwWaxbkL67oAp-14" value="&lt;p style=&quot;margin:0px;margin-top:4px;text-align:center;text-decoration:underline;&quot;&gt;&lt;b&gt;Sistem&lt;/b&gt;&lt;/p&gt;&lt;hr&gt;&lt;p style=&quot;margin:0px;margin-left:8px;&quot;&gt;&lt;br&gt;&lt;/p&gt;" style="verticalAlign=top;align=left;overflow=fill;fontSize=12;fontFamily=Helvetica;html=1;whiteSpace=wrap;fillColor=none;" parent="1" vertex="1">
          <mxGeometry x="400" y="150" width="340" height="740" as="geometry" />
        </mxCell>
        <mxCell id="kkLH6AYHwWaxbkL67oAp-10" value="&lt;p style=&quot;margin:0px;margin-top:4px;text-align:center;text-decoration:underline;&quot;&gt;&lt;b&gt;User&lt;/b&gt;&lt;/p&gt;&lt;hr&gt;&lt;p style=&quot;margin:0px;margin-left:8px;&quot;&gt;&lt;br&gt;&lt;/p&gt;" style="verticalAlign=top;align=left;overflow=fill;fontSize=12;fontFamily=Helvetica;html=1;whiteSpace=wrap;fillColor=none;" parent="1" vertex="1">
          <mxGeometry x="200" y="150" width="200" height="740" as="geometry" />
        </mxCell>
        <mxCell id="n0HrE5ZgGTEFs33YqJEb-3" style="edgeStyle=orthogonalEdgeStyle;rounded=0;orthogonalLoop=1;jettySize=auto;html=1;entryX=0.5;entryY=0;entryDx=0;entryDy=0;" parent="1" source="kkLH6AYHwWaxbkL67oAp-1" target="n0HrE5ZgGTEFs33YqJEb-2" edge="1">
          <mxGeometry relative="1" as="geometry" />
        </mxCell>
        <mxCell id="kkLH6AYHwWaxbkL67oAp-1" value="" style="ellipse;html=1;shape=startState;fillColor=#000000;strokeColor=#000000;" parent="1" vertex="1">
          <mxGeometry x="286" y="190" width="30" height="30" as="geometry" />
        </mxCell>
        <mxCell id="kkLH6AYHwWaxbkL67oAp-20" style="edgeStyle=orthogonalEdgeStyle;rounded=0;orthogonalLoop=1;jettySize=auto;html=1;entryX=0;entryY=0.5;entryDx=0;entryDy=0;" parent="1" source="kkLH6AYHwWaxbkL67oAp-11" target="kkLH6AYHwWaxbkL67oAp-18" edge="1">
          <mxGeometry relative="1" as="geometry" />
        </mxCell>
        <mxCell id="kkLH6AYHwWaxbkL67oAp-11" value="Memilih titik&lt;br&gt;koordinat di peta" style="rounded=1;whiteSpace=wrap;html=1;arcSize=40;fontColor=#000000;fillColor=#ffffc0;strokeColor=#000000;" parent="1" vertex="1">
          <mxGeometry x="241" y="330" width="120" height="40" as="geometry" />
        </mxCell>
        <mxCell id="o5fa5iSoKm64hKfu8K0z-4" style="edgeStyle=orthogonalEdgeStyle;rounded=0;orthogonalLoop=1;jettySize=auto;html=1;entryX=0.5;entryY=0;entryDx=0;entryDy=0;" parent="1" source="kkLH6AYHwWaxbkL67oAp-18" target="wSL0zIoKX7B91ehxIFlR-1" edge="1">
          <mxGeometry relative="1" as="geometry">
            <Array as="points">
              <mxPoint x="500" y="390" />
              <mxPoint x="300" y="390" />
              <mxPoint x="300" y="410" />
            </Array>
          </mxGeometry>
        </mxCell>
        <mxCell id="kkLH6AYHwWaxbkL67oAp-18" value="Menampilkan popup marker di peta" style="rounded=1;whiteSpace=wrap;html=1;arcSize=40;fontColor=#000000;fillColor=#ffffc0;strokeColor=#000000;" parent="1" vertex="1">
          <mxGeometry x="440" y="330" width="120" height="40" as="geometry" />
        </mxCell>
        <mxCell id="n0HrE5ZgGTEFs33YqJEb-24" style="edgeStyle=orthogonalEdgeStyle;rounded=0;orthogonalLoop=1;jettySize=auto;html=1;entryX=0;entryY=0.5;entryDx=0;entryDy=0;" parent="1" source="kkLH6AYHwWaxbkL67oAp-56" target="dlTLycgg3-vuxWSLKVtO-1" edge="1">
          <mxGeometry relative="1" as="geometry" />
        </mxCell>
        <mxCell id="kkLH6AYHwWaxbkL67oAp-56" value="Klik tombol &quot;stop&quot;" style="rounded=1;whiteSpace=wrap;html=1;arcSize=40;fontColor=#000000;fillColor=#ffffc0;strokeColor=#000000;" parent="1" vertex="1">
          <mxGeometry x="240" y="765" width="120" height="40" as="geometry" />
        </mxCell>
        <mxCell id="dlTLycgg3-vuxWSLKVtO-5" style="edgeStyle=orthogonalEdgeStyle;rounded=0;orthogonalLoop=1;jettySize=auto;html=1;entryX=0.5;entryY=0;entryDx=0;entryDy=0;" parent="1" source="dlTLycgg3-vuxWSLKVtO-1" target="dlTLycgg3-vuxWSLKVtO-4" edge="1">
          <mxGeometry relative="1" as="geometry" />
        </mxCell>
        <mxCell id="dlTLycgg3-vuxWSLKVtO-1" value="Mematikan realtime geolokasi" style="rounded=1;whiteSpace=wrap;html=1;arcSize=40;fontColor=#000000;fillColor=#ffffc0;strokeColor=#000000;" parent="1" vertex="1">
          <mxGeometry x="441" y="765" width="120" height="40" as="geometry" />
        </mxCell>
        <mxCell id="dlTLycgg3-vuxWSLKVtO-4" value="" style="ellipse;html=1;shape=endState;fillColor=#000000;strokeColor=#000000;" parent="1" vertex="1">
          <mxGeometry x="486" y="845" width="30" height="30" as="geometry" />
        </mxCell>
        <mxCell id="n0HrE5ZgGTEFs33YqJEb-6" style="edgeStyle=orthogonalEdgeStyle;rounded=0;orthogonalLoop=1;jettySize=auto;html=1;entryX=0;entryY=0.5;entryDx=0;entryDy=0;" parent="1" source="n0HrE5ZgGTEFs33YqJEb-2" target="n0HrE5ZgGTEFs33YqJEb-5" edge="1">
          <mxGeometry relative="1" as="geometry" />
        </mxCell>
        <mxCell id="n0HrE5ZgGTEFs33YqJEb-2" value="Memilih menu peta" style="rounded=1;whiteSpace=wrap;html=1;arcSize=40;fontColor=#000000;fillColor=#ffffc0;strokeColor=#000000;" parent="1" vertex="1">
          <mxGeometry x="241" y="250" width="120" height="40" as="geometry" />
        </mxCell>
        <mxCell id="n0HrE5ZgGTEFs33YqJEb-7" style="edgeStyle=orthogonalEdgeStyle;rounded=0;orthogonalLoop=1;jettySize=auto;html=1;entryX=0.5;entryY=0;entryDx=0;entryDy=0;" parent="1" source="n0HrE5ZgGTEFs33YqJEb-5" target="kkLH6AYHwWaxbkL67oAp-11" edge="1">
          <mxGeometry relative="1" as="geometry">
            <Array as="points">
              <mxPoint x="500" y="310" />
              <mxPoint x="300" y="310" />
              <mxPoint x="300" y="330" />
            </Array>
          </mxGeometry>
        </mxCell>
        <mxCell id="n0HrE5ZgGTEFs33YqJEb-5" value="menampilkan peta" style="rounded=1;whiteSpace=wrap;html=1;arcSize=40;fontColor=#000000;fillColor=#ffffc0;strokeColor=#000000;" parent="1" vertex="1">
          <mxGeometry x="440" y="250" width="120" height="40" as="geometry" />
        </mxCell>
        <mxCell id="n0HrE5ZgGTEFs33YqJEb-19" value="No" style="edgeStyle=orthogonalEdgeStyle;rounded=0;orthogonalLoop=1;jettySize=auto;html=1;entryX=1;entryY=0.5;entryDx=0;entryDy=0;" parent="1" source="n0HrE5ZgGTEFs33YqJEb-14" target="n0HrE5ZgGTEFs33YqJEb-17" edge="1">
          <mxGeometry relative="1" as="geometry" />
        </mxCell>
        <mxCell id="n0HrE5ZgGTEFs33YqJEb-23" value="Yes" style="edgeStyle=orthogonalEdgeStyle;rounded=0;orthogonalLoop=1;jettySize=auto;html=1;entryX=1;entryY=0.5;entryDx=0;entryDy=0;" parent="1" source="n0HrE5ZgGTEFs33YqJEb-14" target="dlTLycgg3-vuxWSLKVtO-1" edge="1">
          <mxGeometry x="-0.7315" relative="1" as="geometry">
            <Array as="points">
              <mxPoint x="660" y="785" />
            </Array>
            <mxPoint as="offset" />
          </mxGeometry>
        </mxCell>
        <mxCell id="n0HrE5ZgGTEFs33YqJEb-14" value="&lt;font style=&quot;font-size: 12px;&quot;&gt;Sampai &lt;br&gt;tujuan ?&lt;/font&gt;" style="rhombus;whiteSpace=wrap;html=1;fontColor=#000000;fillColor=#ffffc0;strokeColor=#000000;" parent="1" vertex="1">
          <mxGeometry x="610" y="675" width="100" height="60" as="geometry" />
        </mxCell>
        <mxCell id="n0HrE5ZgGTEFs33YqJEb-20" style="edgeStyle=orthogonalEdgeStyle;rounded=0;orthogonalLoop=1;jettySize=auto;html=1;entryX=1;entryY=0.5;entryDx=0;entryDy=0;" parent="1" source="n0HrE5ZgGTEFs33YqJEb-17" target="n0HrE5ZgGTEFs33YqJEb-18" edge="1">
          <mxGeometry relative="1" as="geometry" />
        </mxCell>
        <mxCell id="n0HrE5ZgGTEFs33YqJEb-17" value="memperbaharui rute" style="rounded=1;whiteSpace=wrap;html=1;arcSize=40;fontColor=#000000;fillColor=#ffffc0;strokeColor=#000000;" parent="1" vertex="1">
          <mxGeometry x="441" y="685" width="120" height="40" as="geometry" />
        </mxCell>
        <mxCell id="n0HrE5ZgGTEFs33YqJEb-25" value="Yes" style="edgeStyle=orthogonalEdgeStyle;rounded=0;orthogonalLoop=1;jettySize=auto;html=1;entryX=0.5;entryY=0;entryDx=0;entryDy=0;" parent="1" source="n0HrE5ZgGTEFs33YqJEb-18" target="kkLH6AYHwWaxbkL67oAp-56" edge="1">
          <mxGeometry x="-0.7778" y="10" relative="1" as="geometry">
            <mxPoint as="offset" />
          </mxGeometry>
        </mxCell>
        <mxCell id="eqXYklgkq6RMjQNZwIUO-18" value="No" style="edgeStyle=orthogonalEdgeStyle;rounded=0;orthogonalLoop=1;jettySize=auto;html=1;" edge="1" parent="1" source="n0HrE5ZgGTEFs33YqJEb-18">
          <mxGeometry x="-0.9479" y="-10" relative="1" as="geometry">
            <mxPoint x="660" y="655" as="targetPoint" />
            <Array as="points">
              <mxPoint x="300" y="655" />
              <mxPoint x="660" y="655" />
            </Array>
            <mxPoint as="offset" />
          </mxGeometry>
        </mxCell>
        <mxCell id="n0HrE5ZgGTEFs33YqJEb-18" value="Stop?" style="rhombus;whiteSpace=wrap;html=1;fontColor=#000000;fillColor=#ffffc0;strokeColor=#000000;" parent="1" vertex="1">
          <mxGeometry x="259.5" y="680" width="81" height="50" as="geometry" />
        </mxCell>
        <mxCell id="o5fa5iSoKm64hKfu8K0z-8" style="edgeStyle=orthogonalEdgeStyle;rounded=0;orthogonalLoop=1;jettySize=auto;html=1;entryX=0;entryY=0.5;entryDx=0;entryDy=0;" parent="1" source="wSL0zIoKX7B91ehxIFlR-1" target="o5fa5iSoKm64hKfu8K0z-5" edge="1">
          <mxGeometry relative="1" as="geometry" />
        </mxCell>
        <mxCell id="wSL0zIoKX7B91ehxIFlR-1" value="Klik tambah tujuan" style="rounded=1;whiteSpace=wrap;html=1;arcSize=40;fontColor=#000000;fillColor=#ffffc0;strokeColor=#000000;" parent="1" vertex="1">
          <mxGeometry x="241" y="410" width="120" height="40" as="geometry" />
        </mxCell>
        <mxCell id="eqXYklgkq6RMjQNZwIUO-4" style="edgeStyle=orthogonalEdgeStyle;rounded=0;orthogonalLoop=1;jettySize=auto;html=1;entryX=0;entryY=0.5;entryDx=0;entryDy=0;" edge="1" parent="1" source="o5fa5iSoKm64hKfu8K0z-5" target="o5fa5iSoKm64hKfu8K0z-7">
          <mxGeometry relative="1" as="geometry" />
        </mxCell>
        <mxCell id="o5fa5iSoKm64hKfu8K0z-5" value="Menampilkan box berisi lokasi tujuan" style="rounded=1;whiteSpace=wrap;html=1;arcSize=40;fontColor=#000000;fillColor=#ffffc0;strokeColor=#000000;" parent="1" vertex="1">
          <mxGeometry x="440" y="410" width="120" height="40" as="geometry" />
        </mxCell>
        <mxCell id="eqXYklgkq6RMjQNZwIUO-3" value="Yes" style="edgeStyle=orthogonalEdgeStyle;rounded=0;orthogonalLoop=1;jettySize=auto;html=1;entryX=1;entryY=0.5;entryDx=0;entryDy=0;" edge="1" parent="1" source="o5fa5iSoKm64hKfu8K0z-7" target="n0HrE5ZgGTEFs33YqJEb-5">
          <mxGeometry x="-0.9308" y="-20" relative="1" as="geometry">
            <Array as="points">
              <mxPoint x="650" y="270" />
            </Array>
            <mxPoint as="offset" />
          </mxGeometry>
        </mxCell>
        <mxCell id="eqXYklgkq6RMjQNZwIUO-14" value="No" style="edgeStyle=orthogonalEdgeStyle;rounded=0;orthogonalLoop=1;jettySize=auto;html=1;entryX=1;entryY=0.5;entryDx=0;entryDy=0;" edge="1" parent="1" source="o5fa5iSoKm64hKfu8K0z-7" target="o5fa5iSoKm64hKfu8K0z-13">
          <mxGeometry x="-0.8958" y="10" relative="1" as="geometry">
            <Array as="points">
              <mxPoint x="650" y="502" />
            </Array>
            <mxPoint as="offset" />
          </mxGeometry>
        </mxCell>
        <mxCell id="o5fa5iSoKm64hKfu8K0z-7" value="tambah &lt;br&gt;tujuan ?" style="rhombus;whiteSpace=wrap;html=1;fontColor=#000000;fillColor=#ffffc0;strokeColor=#000000;" parent="1" vertex="1">
          <mxGeometry x="604.75" y="397.5" width="90.5" height="65" as="geometry" />
        </mxCell>
        <mxCell id="eqXYklgkq6RMjQNZwIUO-10" style="edgeStyle=orthogonalEdgeStyle;rounded=0;orthogonalLoop=1;jettySize=auto;html=1;entryX=0;entryY=0.5;entryDx=0;entryDy=0;" edge="1" parent="1" source="o5fa5iSoKm64hKfu8K0z-11" target="eqXYklgkq6RMjQNZwIUO-9">
          <mxGeometry relative="1" as="geometry" />
        </mxCell>
        <mxCell id="o5fa5iSoKm64hKfu8K0z-11" value="Klik mulai" style="rounded=1;whiteSpace=wrap;html=1;arcSize=40;fontColor=#000000;fillColor=#ffffc0;strokeColor=#000000;" parent="1" vertex="1">
          <mxGeometry x="241" y="600" width="120" height="40" as="geometry" />
        </mxCell>
        <mxCell id="eqXYklgkq6RMjQNZwIUO-7" value="Yes" style="edgeStyle=orthogonalEdgeStyle;rounded=0;orthogonalLoop=1;jettySize=auto;html=1;entryX=1;entryY=0.5;entryDx=0;entryDy=0;" edge="1" parent="1" source="o5fa5iSoKm64hKfu8K0z-13" target="eqXYklgkq6RMjQNZwIUO-6">
          <mxGeometry x="-0.6898" y="-12" relative="1" as="geometry">
            <mxPoint as="offset" />
          </mxGeometry>
        </mxCell>
        <mxCell id="eqXYklgkq6RMjQNZwIUO-8" value="No" style="edgeStyle=orthogonalEdgeStyle;rounded=0;orthogonalLoop=1;jettySize=auto;html=1;entryX=0.5;entryY=0;entryDx=0;entryDy=0;" edge="1" parent="1" source="o5fa5iSoKm64hKfu8K0z-13" target="o5fa5iSoKm64hKfu8K0z-11">
          <mxGeometry x="-0.7347" y="-10" relative="1" as="geometry">
            <Array as="points">
              <mxPoint x="500" y="580" />
              <mxPoint x="301" y="580" />
            </Array>
            <mxPoint as="offset" />
          </mxGeometry>
        </mxCell>
        <mxCell id="o5fa5iSoKm64hKfu8K0z-13" value="cari rute&lt;br&gt;tercepat ?" style="rhombus;whiteSpace=wrap;html=1;fontColor=#000000;fillColor=#ffffc0;strokeColor=#000000;" parent="1" vertex="1">
          <mxGeometry x="454.5" y="470" width="91" height="65" as="geometry" />
        </mxCell>
        <mxCell id="eqXYklgkq6RMjQNZwIUO-12" style="edgeStyle=orthogonalEdgeStyle;rounded=0;orthogonalLoop=1;jettySize=auto;html=1;entryX=0;entryY=0.5;entryDx=0;entryDy=0;jumpStyle=arc;jumpSize=17;" edge="1" parent="1" source="eqXYklgkq6RMjQNZwIUO-6" target="eqXYklgkq6RMjQNZwIUO-11">
          <mxGeometry relative="1" as="geometry">
            <Array as="points">
              <mxPoint x="301" y="545" />
            </Array>
          </mxGeometry>
        </mxCell>
        <mxCell id="eqXYklgkq6RMjQNZwIUO-6" value="Klik tombol rute tercepat" style="rounded=1;whiteSpace=wrap;html=1;arcSize=40;fontColor=#000000;fillColor=#ffffc0;strokeColor=#000000;" vertex="1" parent="1">
          <mxGeometry x="241" y="482.5" width="120" height="40" as="geometry" />
        </mxCell>
        <mxCell id="eqXYklgkq6RMjQNZwIUO-17" style="edgeStyle=orthogonalEdgeStyle;rounded=0;orthogonalLoop=1;jettySize=auto;html=1;entryX=0.5;entryY=0;entryDx=0;entryDy=0;" edge="1" parent="1" source="eqXYklgkq6RMjQNZwIUO-9" target="n0HrE5ZgGTEFs33YqJEb-14">
          <mxGeometry relative="1" as="geometry" />
        </mxCell>
        <mxCell id="eqXYklgkq6RMjQNZwIUO-9" value="Mengaktifkan&lt;br&gt;relatime geolokasi" style="rounded=1;whiteSpace=wrap;html=1;arcSize=40;fontColor=#000000;fillColor=#ffffc0;strokeColor=#000000;" vertex="1" parent="1">
          <mxGeometry x="440" y="600" width="120" height="40" as="geometry" />
        </mxCell>
        <mxCell id="eqXYklgkq6RMjQNZwIUO-16" style="edgeStyle=orthogonalEdgeStyle;rounded=0;orthogonalLoop=1;jettySize=auto;html=1;" edge="1" parent="1" source="eqXYklgkq6RMjQNZwIUO-11">
          <mxGeometry relative="1" as="geometry">
            <mxPoint x="499.9999999999998" y="580" as="targetPoint" />
            <Array as="points">
              <mxPoint x="650" y="580" />
            </Array>
          </mxGeometry>
        </mxCell>
        <mxCell id="eqXYklgkq6RMjQNZwIUO-11" value="&lt;font style=&quot;font-size: 10px;&quot;&gt;mengurutkan jarak &lt;br&gt;dan waktu tercepat &lt;br&gt;rute perjalanan&lt;/font&gt;" style="rounded=1;whiteSpace=wrap;html=1;arcSize=40;fontColor=#000000;fillColor=#ffffc0;strokeColor=#000000;" vertex="1" parent="1">
          <mxGeometry x="590" y="520" width="120" height="50" as="geometry" />
        </mxCell>
      </root>
    </mxGraphModel>
  </diagram>
</mxfile>
